<svg width="280" height="280" viewBox="0 0 280 280" fill="none" xmlns="http://www.w3.org/2000/svg">
<path d="M269.89 213.443L155.595 279.429L26.8901 204.955L141.185 138.969L269.89 213.443Z" fill="#C1A213"/>
<path opacity="0.5" d="M269.89 213.443L155.595 279.429L26.8901 204.955L141.185 138.969L269.89 213.443Z" fill="black"/>
<path d="M141.186 49.5222L141.185 138.969L26.8901 204.955L26.8917 115.508L141.186 49.5222Z" fill="#C1A213"/>
<path opacity="0.23" d="M141.186 49.5222L141.185 138.969L26.8901 204.955L26.8917 115.508L141.186 49.5222Z" fill="black"/>
<path d="M155.595 189.976V279.429L26.8901 204.955L26.8917 115.508L155.595 189.976Z" fill="#C1A213"/>
<path opacity="0.38" d="M155.595 189.976V279.429L26.8901 204.955L26.8917 115.508L155.595 189.976Z" fill="black"/>
<path d="M269.89 123.988V213.443L141.185 138.969L141.187 49.5222L269.89 123.988Z" fill="#C1A213"/>
<path opacity="0.4" d="M269.89 123.988V213.443L141.185 138.969L141.187 49.5222L269.89 123.988Z" fill="black"/>
<path d="M269.89 213.443V123.989L155.595 189.976V279.429L269.89 213.443Z" fill="#C1A213"/>
<path opacity="0.23" d="M269.89 213.443V123.989L155.595 189.976V279.429L269.89 213.443Z" fill="black"/>
<path d="M141.187 49.5222L141.346 0L269.734 74.5623L269.89 123.989L141.187 49.5222Z" fill="#C1A213"/>
<path opacity="0.2" d="M141.187 49.5222L141.346 0L269.734 74.5623L269.89 123.989L141.187 49.5222Z" fill="black"/>
<path d="M155.595 189.976L166.313 146.655L279.573 81.2656L269.89 123.989L155.595 189.976Z" fill="#C1A213"/>
<path opacity="0.3" d="M155.595 189.976L166.313 146.655L279.573 81.2656L269.89 123.989L155.595 189.976Z" fill="black"/>
<path d="M26.8918 115.508L13.2593 70.5753L127.553 4.58801L141.187 49.5222L26.8918 115.508Z" fill="#C1A213"/>
<path opacity="0.1" d="M26.8918 115.508L13.2593 70.5753L127.553 4.58801L141.187 49.5222L26.8918 115.508Z" fill="black"/>
<path d="M26.8917 115.508L0 78.3727L128.716 152.839L155.595 189.976L26.8917 115.508Z" fill="#C1A213"/>
<path opacity="0.45" d="M26.8917 115.508L0 78.3727L128.716 152.839L155.595 189.976L26.8917 115.508Z" fill="black"/>
<g opacity="0.7">
<path d="M189.248 252.826C188.859 252.826 188.546 252.509 188.546 252.124V236.384C188.546 235.996 188.86 235.682 189.248 235.682C189.637 235.682 189.95 235.998 189.95 236.384V252.124C189.95 252.509 189.635 252.826 189.248 252.826Z" fill="white"/>
<path d="M187.19 241.835C187.097 241.835 187.003 241.816 186.911 241.777C186.555 241.624 186.391 241.209 186.546 240.852L189.047 235.077L191.834 238.299C192.088 238.592 192.056 239.036 191.763 239.292C191.47 239.538 191.025 239.514 190.773 239.221L189.448 237.69L187.836 241.413C187.72 241.675 187.463 241.835 187.19 241.835Z" fill="white"/>
<path d="M195.743 249.121C195.354 249.121 195.042 248.805 195.042 248.419V232.68C195.042 232.293 195.356 231.978 195.743 231.978C196.131 231.978 196.445 232.294 196.445 232.68V248.419C196.445 248.805 196.131 249.121 195.743 249.121Z" fill="white"/>
<path d="M193.689 238.13C193.596 238.13 193.501 238.111 193.41 238.073C193.054 237.919 192.889 237.504 193.044 237.148L195.544 231.377L198.331 234.592C198.585 234.885 198.554 235.33 198.26 235.583C197.965 235.838 197.525 235.806 197.27 235.514L195.945 233.983L194.335 237.707C194.217 237.97 193.96 238.13 193.689 238.13Z" fill="white"/>
</g>
<g opacity="0.7">
<path d="M170.518 263.508C170.244 263.508 169.983 263.441 169.751 263.31C169.216 263.004 168.91 262.391 168.91 261.622V259.696C168.91 259.309 169.224 258.994 169.612 258.994C170.001 258.994 170.314 259.31 170.314 259.696V261.622C170.314 261.91 170.393 262.059 170.447 262.089C170.498 262.127 170.664 262.11 170.905 261.968C171.525 261.605 172.212 260.214 172.212 258.793V250.735C172.212 250.348 172.526 250.033 172.914 250.033C173.303 250.033 173.616 250.35 173.616 250.735V258.793C173.616 260.626 172.757 262.512 171.617 263.181C171.251 263.398 170.871 263.508 170.518 263.508Z" fill="white"/>
<path d="M163.121 257.017V255.802C163.121 250.081 167.15 243.098 172.105 240.239C174.639 238.779 177.059 238.562 178.912 239.636C180.77 240.708 181.793 242.91 181.793 245.834V246.24L163.121 257.017ZM176.309 240.366C175.251 240.366 174.058 240.733 172.807 241.455C168.597 243.883 165.112 249.543 164.593 254.547L180.38 245.431C180.297 243.234 179.535 241.615 178.209 240.849C177.649 240.528 177.009 240.366 176.309 240.366Z" fill="white"/>
</g>
<path opacity="0.7" d="M0 78.3727L128.716 152.839L155.595 189.976L127.286 154.15L0 78.3727Z" fill="white"/>
<path opacity="0.7" d="M269.89 123.989L155.595 189.976V279.429L157.727 191.773L269.89 123.989Z" fill="white"/>
</svg>
