<svg width="223" height="62" viewBox="0 0 223 62" fill="none" xmlns="http://www.w3.org/2000/svg">
<path d="M10.2122 22.1042H27.2461C27.9996 22.1311 28.6185 22.4136 29.1029 22.9518C29.6141 23.49 29.8698 24.1359 29.8698 24.8893C29.7352 26.5039 28.8607 27.3785 27.2461 27.513H11.5846C10.5621 27.5668 9.71441 27.957 9.04167 28.6836C8.36892 29.4102 7.87109 30.2444 7.54818 31.1862C7.25217 32.1011 7.10417 33.043 7.10417 34.0117C7.10417 34.9805 7.25217 35.9358 7.54818 36.8776C7.87109 37.7925 8.36892 38.6133 9.04167 39.3398C9.71441 40.0664 10.5621 40.4566 11.5846 40.5104H23.8555C24.3398 40.4835 24.5955 40.2144 24.6224 39.7031V37.362C24.5955 36.8238 24.3398 36.5547 23.8555 36.5547H13.5221C12.7687 36.5547 12.1228 36.299 11.5846 35.7878C11.0734 35.2496 10.8177 34.6037 10.8177 33.8503C10.8177 33.0968 11.0734 32.451 11.5846 31.9128C12.1228 31.4015 12.7687 31.1458 13.5221 31.1458H27.3268C28.0803 31.1458 28.7261 31.4015 29.2643 31.9128C29.7487 32.424 30.0043 33.043 30.0312 33.7695V33.8503V43.2956C30.0043 44.0221 29.7487 44.6276 29.2643 45.112C28.753 45.6233 28.1341 45.8924 27.4076 45.9193H10.2122C8.32856 45.8116 6.76779 45.0985 5.52995 43.7799C4.31901 42.4345 3.44444 40.9141 2.90625 39.2188C2.39497 37.5234 2.13932 35.7878 2.13932 34.0117C2.13932 32.2357 2.40842 30.5 2.94661 28.8047C3.48481 27.1094 4.35937 25.6024 5.57031 24.2839C6.78125 22.9384 8.32856 22.2118 10.2122 22.1042ZM79.1549 21.4583C79.8815 21.4852 80.5004 21.7543 81.0117 22.2656C81.523 22.75 81.7921 23.3555 81.819 24.082V43.8607C81.6575 45.4753 80.7695 46.3498 79.1549 46.4844C78.4015 46.4844 77.7422 46.2422 77.1771 45.7578C76.6389 45.2465 76.3698 44.6141 76.3698 43.8607V24.082C76.3967 23.3286 76.6793 22.7096 77.2174 22.2253C77.7556 21.714 78.4015 21.4583 79.1549 21.4583ZM109.428 24.082C109.59 22.4674 110.478 21.5929 112.092 21.4583C112.846 21.4583 113.492 21.714 114.03 22.2253C114.595 22.7096 114.878 23.3286 114.878 24.082V43.2956C114.851 44.049 114.568 44.6814 114.03 45.1927C113.492 45.6771 112.846 45.9193 112.092 45.9193H95.1393C92.7713 45.8385 90.9818 45.2869 89.7708 44.2643C88.5599 43.2148 87.6853 42.0443 87.1471 40.7526C86.6089 39.434 86.3398 38.102 86.3398 36.7565C86.3398 35.3572 86.5955 34.0117 87.1068 32.7201C87.645 31.4015 88.5195 30.2309 89.7305 29.2083C90.9683 28.1589 92.5291 27.6207 94.4128 27.5938H104.585C105.338 27.5938 105.97 27.8628 106.482 28.401C107.02 28.9123 107.289 29.5447 107.289 30.2982C107.289 31.0516 107.02 31.6975 106.482 32.2357C105.97 32.747 105.338 33.0026 104.585 33.0026H94.2513C93.74 33.0026 93.296 33.2179 92.9193 33.6484C92.5425 34.0521 92.26 34.5365 92.0716 35.1016C91.9102 35.6398 91.8294 36.178 91.8294 36.7161C91.8294 37.2813 91.9102 37.8464 92.0716 38.4115C92.26 38.9497 92.5425 39.434 92.9193 39.8646C93.296 40.2682 93.74 40.4835 94.2513 40.5104H108.379C109.079 40.4835 109.428 40.1337 109.428 39.4609V24.082Z" fill="#C1A213"/>
<path d="M128.763 46.8477C127.848 46.8477 126.933 46.6862 126.018 46.3633C125.13 46.0404 124.269 45.5694 123.435 44.9505C122.601 44.3047 121.874 43.457 121.255 42.4076C120.636 41.3581 120.3 40.1068 120.246 38.6536V24.082C120.246 23.3286 120.515 22.7096 121.053 22.2253C121.618 21.714 122.278 21.4583 123.031 21.4583C124.646 21.5929 125.52 22.4674 125.655 24.082V38.3307C125.682 38.9766 125.816 39.5282 126.059 39.9857C126.301 40.4162 126.57 40.7661 126.866 41.0352C127.162 41.2773 127.458 41.4657 127.754 41.6003C128.077 41.7079 128.4 41.7617 128.723 41.7617C129.046 41.7617 129.368 41.7079 129.691 41.6003C130.014 41.4657 130.324 41.2773 130.62 41.0352C130.916 40.7661 131.185 40.4162 131.427 39.9857C131.669 39.5282 131.79 38.9766 131.79 38.3307V24.082C131.79 23.3286 132.059 22.7096 132.598 22.2253C133.163 21.714 133.822 21.4583 134.576 21.4583C136.19 21.5929 137.078 22.4674 137.24 24.082V38.3307C137.266 38.9766 137.401 39.5148 137.643 39.9453C137.885 40.4028 138.155 40.7661 138.451 41.0352C138.747 41.2773 139.043 41.4657 139.339 41.6003C139.661 41.7079 139.984 41.7617 140.307 41.7617C140.63 41.7617 140.953 41.7079 141.276 41.6003C141.599 41.4657 141.908 41.2773 142.204 41.0352C142.5 40.7661 142.77 40.4162 143.012 39.9857C143.254 39.5282 143.375 38.9766 143.375 38.3307V24.082C143.375 23.3286 143.644 22.7096 144.182 22.2253C144.747 21.714 145.407 21.4583 146.16 21.4583C147.775 21.5929 148.663 22.4674 148.824 24.082V38.6536C148.824 40.1068 148.501 41.3581 147.855 42.4076C147.237 43.457 146.51 44.3047 145.676 44.9505C144.868 45.5694 144.007 46.0404 143.092 46.3633C142.204 46.6862 141.289 46.8477 140.348 46.8477C139.433 46.8477 138.518 46.6862 137.603 46.3633C136.715 46.0404 135.854 45.556 135.02 44.9102C134.858 44.8025 134.71 44.6814 134.576 44.5469C134.414 44.6814 134.266 44.8025 134.132 44.9102C133.297 45.556 132.423 46.0404 131.508 46.3633C130.62 46.6862 129.705 46.8477 128.763 46.8477ZM156.897 27.1901C157.624 27.217 158.243 27.4861 158.754 27.9974C159.265 28.4818 159.534 29.0872 159.561 29.8138V43.7799C159.4 45.3945 158.512 46.2691 156.897 46.4036C156.144 46.4036 155.484 46.1615 154.919 45.6771C154.381 45.1658 154.112 44.5334 154.112 43.7799V29.8138C154.139 29.0603 154.421 28.4414 154.96 27.957C155.498 27.4457 156.144 27.1901 156.897 27.1901ZM153.507 21.9427C153.507 21.1892 153.829 20.5434 154.475 20.0052C155.121 19.467 155.901 19.1979 156.816 19.1979C157.731 19.1979 158.512 19.467 159.158 20.0052C159.803 20.5434 160.126 21.1892 160.126 21.9427C160.126 22.7231 159.803 23.3824 159.158 23.9206C158.512 24.4588 157.731 24.7279 156.816 24.7279C155.901 24.7279 155.121 24.4588 154.475 23.9206C153.829 23.3824 153.507 22.7231 153.507 21.9427ZM190.117 29.9349C190.117 30.6076 189.848 31.1727 189.31 31.6302C188.799 32.0608 188.166 32.276 187.413 32.276H170.339C169.989 32.276 169.706 32.3433 169.491 32.4779C169.276 32.6124 169.114 32.7604 169.007 32.9219C168.899 33.0564 168.845 33.1775 168.845 33.2852C168.845 33.4197 168.899 33.5677 169.007 33.7292C169.114 33.8637 169.276 33.9983 169.491 34.1328C169.706 34.2405 169.989 34.3077 170.339 34.3346H183.538C185.233 34.3615 186.632 34.6979 187.736 35.3438C188.839 35.9627 189.619 36.7027 190.077 37.5638C190.561 38.398 190.803 39.2457 190.803 40.1068C190.803 40.941 190.561 41.7886 190.077 42.6497C189.592 43.4839 188.799 44.224 187.695 44.8698C186.619 45.4887 185.233 45.7982 183.538 45.7982C183.242 45.8251 183.026 45.8385 182.892 45.8385H167.23C166.477 45.8385 165.831 45.6233 165.293 45.1927C164.782 44.7352 164.526 44.1836 164.526 43.5378C164.526 42.865 164.795 42.2999 165.333 41.8424C165.845 41.4119 166.477 41.1966 167.23 41.1966H183.861C184.264 41.2235 184.587 41.1697 184.829 41.0352C185.099 40.9006 185.3 40.7526 185.435 40.5911C185.569 40.4297 185.637 40.2682 185.637 40.1068C185.637 40.026 185.569 39.8915 185.435 39.7031C185.3 39.4878 185.099 39.3264 184.829 39.2188C184.587 39.0842 184.264 39.0035 183.861 38.9766H170.621C169.06 38.9497 167.769 38.6267 166.746 38.0078C165.724 37.362 164.997 36.622 164.566 35.7878C164.136 34.9536 163.921 34.1194 163.921 33.2852C163.921 32.451 164.136 31.6302 164.566 30.8229C165.024 29.9887 165.75 29.2756 166.746 28.6836C167.769 28.0647 169.06 27.7283 170.621 27.6745C170.89 27.6476 171.092 27.6341 171.227 27.6341H187.413C188.166 27.6341 188.799 27.8628 189.31 28.3203C189.848 28.7509 190.117 29.2891 190.117 29.9349ZM203.559 45.9193C201.191 45.8385 199.401 45.2869 198.19 44.2643C196.979 43.2148 196.105 42.0443 195.566 40.7526C195.028 39.434 194.759 38.102 194.759 36.7565C194.759 35.3572 195.015 34.0117 195.526 32.7201C196.064 31.4015 196.939 30.2309 198.15 29.2083C199.388 28.1589 200.948 27.6207 202.832 27.5938H218.171C218.924 27.5938 219.556 27.8494 220.068 28.3607C220.606 28.8451 220.875 29.4371 220.875 30.1367C220.875 30.8633 220.606 31.4822 220.068 31.9935C219.556 32.4779 218.924 32.7201 218.171 32.7201H203.074C202.482 32.7201 201.957 32.9219 201.5 33.3255C201.069 33.7292 200.747 34.2539 200.531 34.8997C200.343 35.5456 200.249 36.178 200.249 36.7969C200.249 37.4696 200.343 38.1289 200.531 38.7747C200.747 39.4206 201.069 39.9453 201.5 40.349C201.957 40.7257 202.482 40.9275 203.074 40.9544H218.171C218.924 40.9544 219.556 41.1966 220.068 41.681C220.606 42.1654 220.875 42.7439 220.875 43.4167C220.875 44.1163 220.606 44.7083 220.068 45.1927C219.556 45.6771 218.924 45.9193 218.171 45.9193H203.559ZM220.391 36.6758C220.391 37.1871 220.162 37.6311 219.704 38.0078C219.301 38.3576 218.789 38.5326 218.171 38.5326H204.971C204.352 38.5326 203.828 38.3576 203.397 38.0078C202.967 37.6311 202.751 37.1871 202.751 36.6758C202.751 36.1914 202.967 35.7609 203.397 35.3841C203.828 35.0343 204.352 34.8594 204.971 34.8594H218.171C218.789 34.8594 219.314 35.0477 219.745 35.4245C220.175 35.7743 220.391 36.1914 220.391 36.6758Z" fill="black"/>
<path d="M47.5245 35.263L47.5241 35.2614L47.5207 35.2554L47.5245 35.263ZM68.8896 43.2956L70.0833 36.0017L64.4394 26.7808L42.1473 26.0252L35.8094 31.246L42.7716 42.3942L47.1204 35.243L41.8798 26.2659L42.3456 27.0079L42.0904 26.5666L43.0371 28.0812L42.2135 26.6377L47.5241 35.2614L69.0993 36.2662L65.5964 36.1907L69.6288 36.3983L61.5807 36.1035L47.4913 35.7989L42.7711 42.3926L68.8898 43.293L68.8896 43.2956ZM49.0638 33.364L45.9499 28.3642L50.5 31.5L66.3815 34.0354L49.0638 33.364Z" fill="#C1A213"/>
</svg>
