<svg width="80" height="81" viewBox="0 0 80 81" fill="none" xmlns="http://www.w3.org/2000/svg">
<rect y="0.84375" width="80" height="80" rx="40" fill="#FFEBEB"/>
<path d="M39.9987 58.763C30.1154 58.763 22.082 50.7297 22.082 40.8464C22.082 30.963 30.1154 22.9297 39.9987 22.9297C49.882 22.9297 57.9154 30.963 57.9154 40.8464C57.9154 50.7297 49.882 58.763 39.9987 58.763ZM39.9987 25.4297C31.4987 25.4297 24.582 32.3464 24.582 40.8464C24.582 49.3464 31.4987 56.263 39.9987 56.263C48.4987 56.263 55.4154 49.3464 55.4154 40.8464C55.4154 32.3464 48.4987 25.4297 39.9987 25.4297Z" fill="#E53535"/>
<path d="M35.2849 46.812C34.9682 46.812 34.6516 46.6953 34.4016 46.4453C33.9182 45.962 33.9182 45.162 34.4016 44.6786L43.8349 35.2453C44.3182 34.762 45.1182 34.762 45.6016 35.2453C46.0849 35.7286 46.0849 36.5286 45.6016 37.012L36.1682 46.4453C35.9349 46.6953 35.6016 46.812 35.2849 46.812Z" fill="#E53535"/>
<path d="M44.7182 46.812C44.4016 46.812 44.0849 46.6953 43.8349 46.4453L34.4016 37.012C33.9182 36.5286 33.9182 35.7286 34.4016 35.2453C34.8849 34.762 35.6849 34.762 36.1682 35.2453L45.6016 44.6786C46.0849 45.162 46.0849 45.962 45.6016 46.4453C45.3516 46.6953 45.0349 46.812 44.7182 46.812Z" fill="#E53535"/>
</svg>
